<svg width="639" height="575" viewBox="0 0 639 575" fill="none" xmlns="http://www.w3.org/2000/svg">
<g opacity="0.02">
<path d="M442.028 26.5001C441.528 26.0001 441.128 26.1001 440.528 26.2001C440.028 26.4001 439.328 26.6001 438.628 26.6001C439.428 27.8001 440.328 28.4001 441.028 28.4001C441.628 28.4001 442.128 27.6001 442.028 26.5001Z" fill="url(#paint0_linear_61_177)"/>
<path d="M633.228 551.8C636.228 543.3 638.028 533.4 638.328 524.3C637.928 533 636.128 542.6 633.228 551.8Z" fill="url(#paint1_linear_61_177)"/>
<path d="M-40.172 189.4C-40.172 189.4 -38.872 189.7 -37.672 189.9C-36.372 190.2 -35.172 190.4 -35.172 190.4C-35.072 190.8 -34.972 191.3 -34.972 191.7C-34.972 191.8 -34.972 191.9 -34.872 192C-34.772 192 -34.772 192 -34.772 192.1C-34.672 192.1 -34.672 192.2 -34.672 192.2C-34.672 192.3 -34.772 192.4 -34.972 192.5C-35.372 192.7 -36.072 192.8 -36.672 193C-37.372 193.2 -37.972 193.3 -38.372 193.5C-38.572 193.6 -38.672 193.7 -38.572 193.8C-38.572 193.9 -38.372 194 -38.072 194.2C-35.672 194 -34.272 194 -33.472 194.2C-32.672 194.5 -32.472 195 -32.472 195.6C-32.472 196.4 -32.672 197.2 -32.472 197.8C-32.172 198.6 -31.472 199.2 -29.472 199.3C-29.772 199.3 -29.872 199.5 -29.972 199.8C-30.072 199.9 -30.072 200.1 -30.172 200.2C-30.272 200.4 -30.272 200.6 -30.372 200.8C-30.672 201.7 -31.472 202.6 -33.672 203C-31.672 202.9 -30.472 203 -29.772 203.2C-29.072 203.5 -28.572 203.7 -28.872 204.6C-29.172 206 -30.372 207.8 -29.372 209C-27.072 209.5 -26.872 207.7 -24.372 206.3C-24.372 206.3 -24.172 206.7 -23.872 207.2C-23.772 207.3 -23.672 207.5 -23.672 207.6C-23.672 207.7 -23.572 207.8 -23.572 207.8C-23.572 207.9 -23.572 208 -23.572 208.2C-23.672 208.7 -23.672 209.3 -23.772 209.9C-24.072 212.2 -24.172 214.4 -24.172 214.4C-24.472 214.7 -24.772 215 -25.072 215.2C-25.372 215.5 -25.572 215.8 -25.872 216.1C-26.372 216.7 -26.972 217.3 -27.572 217.7C-28.672 218.7 -29.872 219.4 -30.772 219.8C-32.772 220.6 -34.172 219.9 -33.772 217.3C-34.672 219.4 -35.572 222.2 -36.772 225.4C-37.072 226.2 -37.372 227 -37.672 227.9L-37.772 228.2C-37.772 228.3 -37.672 228.4 -37.672 228.6C-37.572 228.8 -37.472 229.1 -37.372 229.3C-37.172 229.8 -36.972 230.3 -36.772 230.8C-35.972 232.8 -35.172 234.9 -34.372 237.1C-34.172 237.7 -33.972 238.2 -33.772 238.8L-33.472 239.7L-33.372 239.9V240C-33.272 240 -33.272 240.1 -33.172 240.1L-32.272 240.4C-29.872 241.2 -27.472 242.1 -25.072 242.9C-20.172 244.6 -14.972 246.4 -9.672 248.3C0.128006 248.7 10.128 249.1 20.528 249.5C23.128 249.6 25.728 249.7 28.428 249.8C29.728 249.9 31.128 249.9 32.428 250H33.428H33.928L34.528 249.9L36.928 249.7C43.428 249.1 50.128 248.5 56.828 247.9C63.528 247.3 70.328 246.7 77.228 246C78.928 245.8 80.728 245.7 82.428 245.5L85.028 245.3L86.328 245.2C86.728 245.2 87.228 245.1 87.528 245.1C90.128 245 92.728 245 95.328 244.9C100.628 244.8 105.928 244.6 111.328 244.5C114.028 244.4 116.728 244.4 119.428 244.3C120.828 244.3 122.128 244.2 123.528 244.2L125.628 244.1H126.628C126.928 244.1 127.328 244.1 127.528 244.1C135.728 245 144.028 246 152.528 246.9C153.628 247 154.628 247.1 155.728 247.3L157.328 247.5C157.828 247.6 158.228 247.7 158.728 247.8C160.528 248.2 162.428 248.6 164.228 249.1L166.928 249.8L169.528 250.6C171.328 251.1 172.928 251.7 174.628 252.3C176.328 252.9 177.928 253.5 179.528 254.1C181.128 254.7 182.728 255.5 184.228 256.1L186.528 257.2C187.328 257.6 188.028 257.9 188.928 258.4L189.528 258.8C189.628 258.8 189.628 258.9 189.628 258.9L189.928 258.5L190.428 257.8L191.328 256.5C191.928 255.7 192.528 254.8 193.228 254C193.828 253.2 194.328 252.5 194.928 251.8C196.128 250.3 197.028 249.1 198.128 247.9L199.628 246.2C200.128 245.7 200.528 245.2 201.028 244.7C201.428 244.2 201.828 243.8 202.228 243.4L203.428 242.2C204.128 241.5 205.028 240.8 205.528 240.3C205.828 240 206.128 239.8 206.528 239.5C206.728 239.3 207.028 239.1 207.328 238.9L207.728 238.6L207.828 238.5C208.128 238.6 205.128 237.2 206.428 237.8L206.528 237.9L206.828 238.1L207.928 239L208.428 239.4L208.728 239.6V239.5C208.628 239.3 208.528 239.1 208.528 238.9C208.528 238.8 208.428 238.7 208.428 238.6V238.4C208.428 238.3 208.428 238.3 208.428 238.3L208.228 238.4L207.628 238.6L206.728 238.9C205.228 239.3 202.828 239.8 199.828 240C196.728 240.2 193.028 240.1 189.128 239.5C188.128 239.4 187.128 239.2 186.128 239.1C185.128 238.9 184.128 238.8 183.128 238.5C182.128 238.3 181.128 238.1 180.128 237.8H180.028C179.928 237.9 179.828 238.3 179.528 238.8C179.028 239.8 178.128 241.2 177.228 242.4C176.728 243 176.228 243.6 175.828 244.1C175.628 244.4 175.428 244.5 175.228 244.8C174.728 245.2 174.128 245.7 173.628 246.2C169.428 250.1 164.828 253.4 160.428 256.2C159.228 256.9 158.128 257.5 157.128 258.2C156.628 258.5 156.128 258.8 155.628 259.1C155.128 259.4 154.528 259.7 154.028 259.9C153.028 260.4 152.028 261 151.228 261.5C150.428 262 149.428 262.4 148.728 262.8C151.028 263.4 153.628 262.2 156.428 261.3C157.728 260.8 159.028 260.4 160.328 260.2C161.628 260 162.928 260.1 164.128 260.6C163.628 261.3 163.028 261.9 162.428 262.4C161.828 262.9 161.228 263.3 160.728 263.7C160.128 264.1 159.628 264.4 159.128 264.6C158.628 264.9 158.028 265.1 157.528 265.3C156.528 265.7 155.628 266 154.828 266.5C154.028 267 153.528 267.6 152.928 268.5C150.128 266.1 146.428 267.5 141.828 268.9C137.328 270.3 132.028 271.6 128.028 269.4L126.828 273.7L122.028 272.8C120.928 273.3 119.828 273.7 118.828 274.1C117.828 274.5 116.828 274.9 115.828 275.2C113.928 275.9 112.328 276.5 110.828 277C107.828 278.1 105.628 278.8 104.028 279.4C100.728 280.5 99.628 280.8 98.728 281C97.828 281.1 97.128 281.1 94.128 281.5C92.628 281.7 90.628 282 87.828 282.4C86.328 282.6 84.728 282.9 82.828 283.2C80.828 283.5 78.628 283.9 76.128 284.3C64.328 286.9 55.228 290 47.428 292.8C45.428 293.5 43.528 294.1 41.728 294.7C39.828 295.3 38.028 295.9 36.228 296.4C32.628 297.4 29.028 298.2 25.128 298.6C27.328 298.1 33.728 299 27.028 301.5C26.528 300.8 25.228 300.8 23.328 301.3C21.428 301.8 19.128 302.7 16.728 303.6C15.528 304 14.328 304.5 13.128 304.9C11.928 305.3 10.728 305.7 9.62801 306C7.42801 306.6 5.62801 306.8 4.528 306.3C2.728 306.9 0.0280151 307.8 -3.07199 308.8C-3.87199 309.1 -4.672 309.3 -5.472 309.6C-6.57201 310 -7.472 310.2 -8.772 310.7C-11.172 311.6 -13.572 312.5 -15.672 313.4C-19.972 315.2 -23.572 316.7 -25.072 318C-26.572 319.3 -26.172 319.9 -22.772 319.8C-24.472 319.9 -27.672 320.7 -31.272 321.7C-33.072 322.2 -34.972 322.8 -36.872 323.3C-37.772 323.6 -38.772 323.9 -39.672 324.1C-40.572 324.4 -41.372 324.7 -42.172 325C-48.472 327.2 -52.072 328.2 -43.572 323C-46.172 324.2 -48.672 325.4 -51.172 326.5C-52.472 327.1 -53.672 327.6 -54.872 328.2C-55.472 328.5 -56.072 328.8 -56.672 329.1C-57.272 329.4 -57.772 329.7 -58.372 330C-62.872 332.5 -66.872 334.9 -69.972 337.2L-56.772 331.1C-60.772 333.4 -64.572 335.6 -68.172 337.6C-68.672 337.9 -69.072 338.1 -69.572 338.4C-69.972 338.7 -70.372 338.9 -70.872 339.2C-71.672 339.7 -72.572 340.3 -73.372 340.8C-74.972 341.8 -76.572 342.9 -78.172 343.8C-79.772 344.8 -81.272 345.7 -82.772 346.7C-84.272 347.7 -85.472 348.7 -86.872 349.7C-89.472 351.7 -91.972 353.6 -94.472 355.4C-95.072 355.9 -95.772 356.3 -96.272 356.8C-96.772 357.3 -97.372 357.8 -97.872 358.3C-98.872 359.3 -99.872 360.2 -100.972 361.2C-102.972 363.1 -104.872 365 -106.672 367C-109.972 371 -112.872 375.1 -114.972 379.7C-114.972 379.7 -114.372 379.2 -113.572 378.3C-113.172 377.9 -112.672 377.4 -112.172 376.9C-111.672 376.4 -111.072 375.9 -110.472 375.4C-109.272 374.4 -108.172 373.3 -107.172 372.5C-106.272 371.7 -105.672 371.2 -105.672 371.2C-112.072 378.4 -116.972 385.5 -121.072 391.5C-125.172 397.5 -128.472 402.4 -132.172 405.4C-132.172 405.4 -131.772 404.3 -131.172 402.6C-130.672 400.9 -129.672 398.7 -128.772 396.4C-128.372 395.3 -127.772 394.2 -127.372 393.2C-126.872 392.2 -126.472 391.2 -126.072 390.4C-125.272 388.8 -124.672 387.7 -124.672 387.7C-128.072 393.3 -130.872 398.7 -132.872 403.9C-133.172 404.5 -133.372 405.2 -133.672 405.8C-133.872 406.4 -134.172 407.1 -134.372 407.7C-134.772 409 -135.272 410.2 -135.672 411.5C-136.372 414 -137.172 416.5 -137.672 419C-138.272 421.5 -138.672 424 -139.072 426.4C-139.272 427.6 -139.372 428.9 -139.472 430.1C-139.572 431.3 -139.772 432.6 -139.772 433.8C-139.872 435 -139.872 436.3 -139.972 437.5C-140.072 438.7 -139.872 440 -139.872 441.3C-139.772 443.8 -139.572 446.4 -139.372 448.9C-138.972 451 -138.672 453.1 -138.172 455.3C-137.772 457.5 -137.172 459.7 -136.672 462C-136.672 462 -136.972 459.6 -137.272 457.3C-137.472 456.1 -137.572 454.9 -137.672 454.1C-137.772 453.2 -137.772 452.6 -137.772 452.6C-137.572 453.6 -137.272 454.8 -136.972 456.1C-136.672 457.4 -136.372 458.8 -135.972 460.4C-135.672 462 -135.072 463.6 -134.572 465.3C-134.272 466.2 -134.072 467.1 -133.772 468C-133.472 468.9 -133.072 469.8 -132.772 470.8C-132.472 471.7 -132.072 472.7 -131.672 473.7C-131.272 474.7 -130.872 475.6 -130.372 476.7C-129.972 477.7 -129.472 478.7 -128.972 479.8C-128.472 480.8 -127.972 481.8 -127.372 482.9C-126.372 485 -125.072 487.1 -123.872 489.3C-123.272 490.4 -122.572 491.4 -121.872 492.5C-121.172 493.6 -120.472 494.7 -119.672 495.7C-113.572 504.3 -105.672 512.9 -95.772 520.7C-90.872 524.6 -85.572 528.4 -79.672 531.8C-76.672 533.5 -73.772 535.2 -70.772 536.8C-70.072 537.2 -69.272 537.6 -68.472 538L-66.072 539.1L-61.272 541.3C-59.672 542 -58.072 542.8 -56.472 543.5C-54.772 544.1 -53.072 544.8 -51.472 545.4C-49.772 546 -48.172 546.7 -46.472 547.3L-43.972 548.3C-43.172 548.6 -42.272 548.9 -41.372 549.1C-37.972 550.2 -34.572 551.3 -31.172 552.3C-29.472 552.9 -27.772 553.3 -26.072 553.7C-24.372 554.1 -22.672 554.6 -20.972 555C-19.272 555.4 -17.572 555.9 -15.972 556.3C-14.272 556.7 -12.572 557 -10.872 557.4C-7.57199 558.1 -4.27199 558.8 -1.07199 559.4C0.528015 559.7 2.12799 560 3.728 560.3C5.42799 560.6 7.028 560.8 8.62801 561.1C9.22801 561.2 9.828 561.3 10.528 561.4C11.028 561.5 11.528 561.5 12.028 561.6C13.028 561.7 14.028 561.8 15.028 561.9C30.828 563.5 42.728 563.6 48.228 562.9C48.228 562.9 45.828 561.8 43.428 560.6C41.028 559.5 38.628 558.3 38.628 558.3C38.628 558.3 39.828 558.3 41.628 558.2C43.428 558.1 45.728 558.1 48.128 558C50.528 557.9 52.828 557.8 54.528 557.7C56.228 557.6 57.428 557.6 57.428 557.6C56.328 557.5 53.928 560 51.428 562.4C49.028 564.8 46.528 567 45.628 566.3C46.928 566.4 48.328 566.6 49.828 566.8C51.328 566.9 53.028 567.1 54.928 567.3C58.628 567.7 62.828 568 67.528 568.4C72.128 568.7 77.128 569.1 82.628 569.5C87.928 569.8 93.628 570.2 99.628 570.6C111.628 571.4 125.228 572.2 140.028 572.7C147.428 572.9 155.128 573 163.028 573C170.928 572.9 179.128 572.6 187.328 572C195.528 571.5 204.028 570.5 212.328 569.3C220.628 568.1 228.528 566.6 236.128 565C251.228 561.8 264.828 558 276.628 554.7C288.428 551.4 298.428 548.4 306.528 546.2C314.528 544.1 320.828 542.4 324.828 541.7C337.928 540 328.528 546.3 328.528 546.8C336.028 544.1 337.428 542.8 338.628 541.8C339.828 540.8 340.728 540 347.328 538.5C351.028 538.2 347.228 541.3 345.428 542.3C348.228 541.3 351.028 540.9 353.028 540.4C355.128 540 356.528 539.5 356.528 538.7C349.228 539.2 351.128 534.4 347.528 532.4C347.528 532.4 351.728 531.5 355.928 530.6C360.128 529.6 364.328 528.9 364.328 528.9L364.128 531.7C366.028 531.3 367.928 529.1 371.528 526.6C373.328 525.3 375.528 524.1 378.328 523.1C381.128 522.1 384.528 521.2 388.628 520.8C402.428 518.9 416.528 517.2 430.428 516.1C444.328 515 458.028 515 470.828 516.1C470.528 516.9 469.128 517.4 467.028 517.8C466.528 517.9 465.928 518 465.328 518.1C464.728 518.2 464.128 518.3 463.428 518.4C462.128 518.6 460.828 518.8 459.428 519C461.128 519.1 463.328 519 465.428 519.2C467.528 519.4 469.628 519.8 471.128 520.4C465.228 517.2 481.928 519.3 477.228 517.8C479.628 517.2 482.028 517 484.528 516.8C485.828 516.7 487.028 516.7 488.328 516.7C488.928 516.7 489.628 516.7 490.228 516.7C490.828 516.8 491.528 516.8 492.128 516.9C494.628 517.2 497.228 517.5 499.828 517.9L501.728 518.2C502.328 518.3 503.028 518.5 503.628 518.6C504.828 518.9 506.128 519.2 507.328 519.5C508.528 519.8 509.828 520.1 511.028 520.4C511.628 520.6 512.228 520.7 512.828 520.9L513.728 521.1L514.528 521.3C516.528 521.9 518.528 522.5 520.428 523.1C522.128 523.6 523.628 524 524.828 524.3C526.128 524.6 527.028 524.7 528.028 524.6C528.428 524 529.728 522.3 531.828 519.9C532.828 518.7 534.128 517.3 535.628 515.9C537.128 514.4 538.728 512.9 540.728 511.2C544.528 508 549.428 504.7 555.128 502.1C555.828 501.8 556.628 501.5 557.328 501.2H557.428C557.128 500.9 557.328 501.1 557.328 501H557.428L557.728 500.9L558.328 500.7L559.528 500.3C561.128 499.8 562.728 499.3 564.328 498.8C567.528 497.9 571.128 497.5 574.628 497.3C578.228 497.1 581.828 497.3 585.528 497.7C589.128 498.2 592.828 499 596.328 500.1C603.428 502.2 610.028 505.7 615.628 509.5C618.428 511.4 620.928 513.5 623.128 515.4C625.328 517.4 627.228 519.3 628.928 521C629.728 521.8 630.528 522.6 631.128 523.3C631.828 524 632.328 524.6 632.828 525.1C633.828 526.1 634.628 526.7 635.028 526.7C634.328 536.7 631.728 547.5 627.728 556.3C626.828 558.5 625.728 560.5 624.728 562.4C623.728 564.3 622.728 566 621.728 567.5C619.728 570.5 618.028 572.7 616.828 574.1C618.028 573.1 620.728 570.1 623.828 565.3C625.328 562.9 626.928 560.1 628.328 557.1C629.028 555.6 629.728 554 630.428 552.3C631.128 550.6 631.728 548.9 632.228 547.2C632.728 545.5 633.328 543.7 633.728 541.8L634.028 540.4L634.328 539.1C634.528 538.2 634.628 537.3 634.828 536.4C635.128 534.6 635.428 532.8 635.628 531C635.828 529.3 635.928 527.5 636.028 525.8C636.028 524.9 636.128 524.1 636.128 523.2C636.128 522.4 636.128 521.6 636.128 520.8C636.128 519.2 636.028 517.7 635.928 516.2C635.728 513.2 635.328 510.6 634.928 508.2C634.928 508.2 633.928 507.5 632.828 506.8C631.828 506.2 630.728 505.5 630.728 505.5C628.628 495.2 626.528 490.2 625.528 487C624.428 483.9 624.228 482.7 624.128 481.6C624.028 480.4 623.928 479.3 622.728 476.3C622.128 474.8 621.228 472.8 619.728 470.2C619.328 469.5 618.928 468.9 618.528 468.1C618.328 467.7 618.028 467.4 617.828 467C617.528 466.5 617.128 466 616.728 465.4C616.028 464.3 615.128 463.2 614.228 462C613.728 461.4 613.328 460.8 612.828 460.2C612.628 459.9 612.328 459.6 612.128 459.3L611.828 459C611.928 458.8 612.128 458.7 612.228 458.7C612.328 458.7 612.428 458.6 612.528 458.6C612.528 458.6 612.628 458.6 612.728 458.6H612.828C612.828 458.6 612.928 458.7 613.028 458.7C614.028 459.4 615.428 460.7 617.028 462.6C617.828 463.5 618.728 464.6 619.728 465.9C620.428 466.8 621.128 467.8 621.928 468.9C622.728 470 623.528 471.2 624.328 472.4C625.128 473.7 625.928 475 626.728 476.5C629.828 482.3 632.928 489.4 635.028 497.6C637.128 505.8 638.328 515.1 638.028 524.8C638.428 516.1 637.828 507.8 636.428 500.4C635.028 493 633.028 486.2 630.528 480.3C628.128 474.4 625.228 469.3 622.228 465.1C622.028 464.8 621.828 464.6 621.628 464.3C621.328 464 621.128 463.6 620.928 463.3C620.428 462.6 619.928 462 619.428 461.4C618.428 460.2 617.428 459.1 616.528 458C616.328 457.7 616.028 457.5 615.828 457.2L615.428 456.8L615.228 456.6L615.128 456.5C614.928 456.4 614.828 456.3 614.628 456.3C614.328 456.2 613.928 456.1 613.628 456C613.428 455.7 613.328 455.5 613.128 455.3L613.028 455.1V455L611.328 453C611.128 452.8 610.928 452.5 610.728 452.3C610.028 451.4 609.428 450.6 608.828 449.9C607.828 448.5 607.128 447.6 606.828 447C606.128 445.8 606.628 445.5 606.928 445.2C607.228 444.9 607.528 444.5 606.328 442.7C605.728 441.8 604.728 440.7 603.228 439.2C602.528 438.4 601.628 437.6 600.528 436.6C599.528 435.7 598.328 434.6 596.928 433.5C595.828 432.8 594.828 432.1 593.728 431.4C592.628 430.7 591.528 430.1 590.428 429.4C589.328 428.8 588.228 428.2 587.028 427.6C586.428 427.3 585.928 427 585.328 426.7C584.728 426.4 584.228 426.2 583.628 425.9C579.028 423.7 574.528 421.9 570.128 420.3C565.728 418.7 561.628 417.4 557.728 416C553.828 414.7 550.328 413.4 547.128 412L547.528 411.6C543.628 410 540.328 409.1 537.028 408.1C533.728 407.2 530.628 406.5 527.528 405.9C526.728 405.8 526.028 405.6 525.228 405.5C524.428 405.4 523.728 405.3 523.028 405.2C521.528 405 520.128 404.9 518.628 404.7C515.728 404.4 512.928 404.2 510.128 404C508.728 403.9 507.328 403.8 505.928 403.7C504.528 403.7 503.128 403.6 501.828 403.6C499.028 403.5 496.228 403.4 493.428 403.1C492.028 403 490.528 402.9 489.128 402.7C487.628 402.6 486.228 402.4 484.728 402.3C481.728 402 478.628 401.5 475.328 400.9L478.228 400.1C475.928 399.5 472.928 399.1 469.628 398.9C466.328 398.8 462.628 398.7 458.728 398.7C456.728 398.7 454.728 398.7 452.628 398.7C450.628 398.7 448.528 398.8 446.428 398.8C442.228 398.8 438.028 398.7 433.828 398.4C436.228 398.6 438.428 399.3 438.828 399.9C439.028 400.2 438.728 400.6 437.828 400.9C436.928 401.2 435.328 401.4 432.828 401.7C428.128 401.5 423.828 401.5 419.828 401.7C417.828 401.7 415.828 401.9 414.028 402.1C412.128 402.3 410.328 402.4 408.528 402.6C405.028 402.9 401.528 403.2 398.228 403.4C394.928 403.7 391.628 403.8 388.228 403.6C388.228 403.6 387.428 403.9 386.328 404.3C385.228 404.7 383.628 405.3 382.128 405.9C379.128 407.1 376.128 408.4 376.128 408.4C368.428 409.5 358.028 411.5 345.828 414.1C342.828 414.8 339.628 415.5 336.328 416.2C333.028 416.9 329.728 417.8 326.228 418.6C322.828 419.5 319.228 420.3 315.628 421.3C312.028 422.3 308.328 423.3 304.628 424.3C300.828 425.3 297.128 426.4 293.328 427.5C291.428 428.1 289.428 428.6 287.528 429.2C285.628 429.8 283.628 430.4 281.728 430.9C277.828 432.1 273.928 433.3 269.928 434.5C266.128 435.7 262.228 436.9 258.228 438.1C242.828 442.9 227.928 447.4 214.228 450.7C207.328 452.3 200.728 453.7 194.528 454.6C188.328 455.6 181.828 456.2 175.228 456.7C162.028 457.6 148.328 457.5 134.928 457C128.228 456.8 121.728 456.4 115.328 456.1C108.928 455.7 102.828 455.4 97.228 455C86.128 454.3 77.228 453.7 70.828 453.1L72.828 452.8C63.128 452.1 52.428 451.1 41.528 449.5C38.828 449.1 36.128 448.6 33.328 448.2C32.628 448.1 32.028 447.9 31.328 447.8C31.128 447.8 31.128 447.8 31.128 447.8C31.128 447.8 31.128 447.8 31.028 447.8H30.828H30.528C29.628 447.7 28.728 447.5 27.828 447.3C26.928 447.1 25.928 446.8 24.928 446.5C23.928 446.2 22.928 445.8 22.028 445.2C21.128 444.7 20.228 444 19.428 443.1C18.728 442.3 18.128 441.2 17.928 440.1C17.728 439 17.928 437.9 18.428 436.9C18.828 435.9 19.528 435 20.228 434.2C21.728 432.6 23.528 431.3 25.428 430.1C26.428 429.5 27.428 429 28.428 428.4C28.728 428.3 28.928 428.1 29.228 428L29.428 427.9C29.428 427.9 29.528 427.9 29.628 427.8L29.928 427.7L30.728 427.4L31.728 427.1C33.028 426.7 34.328 426.2 35.628 425.8C37.028 425.4 38.328 425 39.628 424.6C50.328 421.3 61.028 418.5 71.028 416C72.628 416 74.328 416 76.128 415.9C77.928 415.8 79.728 415.7 81.628 415.5C85.328 415.1 89.328 414.6 93.328 414C95.328 413.7 97.428 413.3 99.428 413C101.428 412.7 103.528 412.3 105.528 412C109.628 411.3 113.628 410.6 117.428 410C113.128 410.3 111.628 409.7 112.028 409C112.328 408.3 114.628 407.3 117.828 406.7C120.628 406.1 123.128 405.6 125.428 405.1C127.628 404.6 129.528 404.1 131.228 403.8C134.528 403 136.828 402.3 138.428 401.8C141.628 400.8 141.928 400.4 142.228 400C142.528 399.5 142.928 399 146.128 397.8C149.328 396.5 155.428 394.6 167.428 390.4C169.128 389.8 171.028 389 173.028 388.3C175.028 387.5 177.228 386.6 179.628 385.7C180.828 385.2 182.028 384.8 183.228 384.3C184.428 383.8 185.728 383.2 187.028 382.7C188.328 382.1 189.628 381.6 191.028 381C191.728 380.7 192.428 380.4 193.128 380.1C193.828 379.8 194.528 379.4 195.228 379.1C206.628 374 220.128 367.1 234.328 357.4C237.828 354.9 241.428 352.3 245.028 349.5C246.828 348.1 248.628 346.6 250.428 345.1C252.228 343.6 254.028 342.2 255.728 340.5C257.428 338.9 259.228 337.2 261.028 335.6L262.328 334.3C262.728 333.9 263.228 333.5 263.728 333C264.728 332 265.728 331 266.628 329.9C270.528 325.8 274.128 321.4 277.428 316.9C284.128 307.8 290.028 297.8 294.728 286.5C299.428 275.2 303.028 262.6 304.228 248.2C304.828 241 304.728 233.4 303.628 225.5C302.528 217.6 300.528 209.5 297.328 201.7C296.528 199.8 295.728 197.8 294.828 195.9L293.428 193.1C293.128 192.6 293.028 192.2 292.628 191.7L291.628 189.9C290.928 188.7 290.228 187.6 289.528 186.4L288.528 184.8L288.128 184.2L287.428 183.1L287.028 182.5L285.828 180.8L285.628 180.5L285.128 179.9C280.228 173.3 274.728 167.7 269.428 163.1L267.428 161.4C266.728 160.8 266.128 160.3 265.428 159.8C264.128 158.7 262.828 157.8 261.528 156.8C260.828 156.3 260.228 155.9 259.628 155.4L258.828 154.8C258.728 154.7 258.528 154.6 258.328 154.4C257.728 153.9 257.028 153.5 256.428 153.1C255.128 152.4 253.928 151.7 252.728 151.1C251.628 150.5 250.528 150.1 249.528 149.7C248.528 149.4 247.728 149 246.928 148.8C246.128 148.5 245.528 148.3 245.028 148.2C244.528 148 244.128 147.9 243.828 147.8C240.828 148.2 238.228 148.4 236.128 148.5C234.028 148.6 232.228 148.7 230.628 148.7C229.028 148.7 227.528 148.8 225.628 149C223.728 149.2 221.528 149.4 218.128 149.9L221.528 149.3C220.328 149.4 218.228 149.7 215.528 150C214.428 150.1 213.328 150.3 212.028 150.4C211.728 150.4 211.428 150.5 211.128 150.5C211.028 150.2 211.028 149.8 211.028 149.5C211.128 148.8 211.528 148.1 212.028 147.4C213.028 146.1 214.528 145.1 215.928 144.1C217.428 143.1 218.928 142.1 220.428 141.1C223.428 139.1 226.528 137.4 229.328 135.8C235.328 132.5 240.128 130.5 241.328 129.2L239.428 129.1C239.528 128.6 239.728 128.2 240.028 127.8C240.328 127.5 240.728 127.3 241.228 127.2C242.128 127 243.328 127 244.628 127.3C247.128 127.8 250.128 128.8 252.728 129C251.128 127.9 250.028 126.9 249.328 126C248.628 125 248.328 124.2 248.428 123.3C248.528 121.7 250.028 120.6 251.128 120.2L251.928 121.2C252.628 120.9 253.428 120.4 254.528 119.7C255.528 119 256.828 118.4 258.328 117.6C259.828 117 261.628 116.3 263.528 115.8C264.428 115.6 265.428 115.4 266.428 115.2C267.428 115 268.428 115 269.228 115L268.928 117.6C269.128 117.5 269.228 117.4 269.428 117.4L269.728 117.3H269.828H269.928C269.928 117.3 270.028 117.3 270.128 117.3C271.228 117.2 272.328 117.2 273.428 117.1C275.728 117 278.228 117.1 280.828 117.2C283.428 117.3 286.028 117.4 288.728 117.7C291.428 118 294.228 118.3 296.928 118.6C299.628 118.9 302.428 119.3 305.028 119.7C307.628 120.1 310.228 120.4 312.628 120.8C317.428 121.5 321.628 122.2 324.628 122.6C338.228 125.2 355.828 129.6 375.828 133.2C378.328 133.6 380.828 134.1 383.428 134.5C386.028 134.9 388.628 135.2 391.228 135.6C393.828 136 396.428 136.3 399.128 136.6C401.828 136.9 404.528 137.1 407.228 137.4L411.328 137.7C412.628 137.8 414.028 137.9 415.428 137.9C418.228 138 420.928 138.1 423.728 138.1C425.128 138.1 426.428 138.1 427.828 138.2C429.128 138.2 430.628 138.2 432.328 138.2C435.628 138.1 439.528 138 443.828 137.5C443.828 137.5 444.528 137.6 445.628 137.7C446.728 137.8 448.428 138 450.328 138.1C454.228 138.3 459.628 138.3 464.828 137.6C470.128 137 475.228 135.7 478.628 134.6C480.328 134 481.828 133.5 482.728 133.2C483.228 133 483.628 132.9 483.828 132.8C484.028 132.7 484.228 132.6 484.228 132.6C484.228 132.6 484.528 132.4 484.828 132C485.228 131.6 485.728 131.2 486.228 130.7C486.728 130.2 487.128 129.7 487.528 129.4C487.828 129 488.028 128.8 488.028 128.8C488.028 128.8 488.028 128.3 488.028 127.4C488.028 126.5 487.928 125.2 487.828 123.6C487.628 122 487.428 119.9 487.028 117.7C486.828 116.6 486.628 115.3 486.328 114.1C486.028 112.8 485.628 111.5 485.228 110.1C483.628 104.6 481.128 98.2 477.528 91.5C477.128 90.6 476.628 89.8 476.228 88.9C475.728 88 475.228 87.2 474.828 86.3C473.828 84.5 472.828 82.7 471.928 81C469.828 77.5 467.728 73.9 465.628 70.2C464.928 68.4 464.228 66.6 463.428 64.8C463.028 63.9 462.628 63 462.228 62.1L461.928 61.4L461.728 61C461.628 60.7 461.528 60.5 461.428 60.2C460.528 58 459.528 56 458.328 54C457.128 52 455.828 50.2 454.328 48.5C453.928 48.1 453.528 47.7 453.128 47.3C452.928 47.1 452.728 46.9 452.528 46.7C452.428 46.5 452.328 46.3 452.228 46.1C451.928 45.4 451.528 44.7 451.128 43.9C450.428 42.5 449.628 41.2 448.928 40C448.128 38.9 447.328 37.8 446.428 36.9C444.628 35 442.628 33.5 440.828 32.1L440.128 29.5C440.128 29.5 439.728 29.9 439.328 30.2C438.928 30.5 438.428 30.7 438.428 30.7C437.828 30.5 437.328 30.5 436.828 30.6H436.728C436.728 30.6 436.628 30.7 436.528 30.7L436.428 30.8C436.328 30.8 436.328 30.8 436.228 30.9C436.128 30.9 436.028 31 435.928 31C435.628 31.1 435.428 31.1 435.128 31.1C434.828 31.1 434.628 31.1 434.428 31.1C434.128 31 433.928 30.7 434.128 30C434.128 30 434.728 30 435.528 30.1C436.228 30.1 436.828 30.2 436.728 30.2C437.028 30.2 437.528 30.2 437.728 30.2C438.028 30.2 438.228 30.1 438.228 30.1C437.028 30 436.828 29.4 437.028 28.7C437.128 28.1 437.628 27.2 437.728 26.4C437.328 26.4 437.028 26.3 436.628 26.1C436.528 26 436.428 26 436.428 25.9C436.428 25.8 436.528 25.8 436.428 25.7C436.328 25.6 436.328 25.6 436.228 25.5C436.128 25.4 436.028 25.3 435.828 25.2C435.328 25.7 435.528 26 435.928 26.2C436.028 26.3 436.228 26.4 436.328 26.5C436.428 26.6 436.528 26.7 436.528 26.9C436.428 27.1 436.028 27.5 435.128 27.8C434.828 27.9 434.628 28 434.328 28C434.028 28.1 433.728 28.1 433.328 28.2C432.528 28.3 431.628 28.4 430.828 28.5C427.428 28.9 423.828 29 420.528 28.2C409.828 27 420.228 23.9 407.828 22.4C391.328 20.1 374.028 16.9 355.828 13.4C337.628 9.99999 318.428 6.4 297.928 3.7L290.128 2.8L286.228 2.3C284.928 2.1 283.628 2 282.228 1.9L278.228 1.5L271.628 1L268.228 0.699997L264.828 0.5C262.628 0.4 260.328 0.300003 258.128 0.300003C253.628 0.200003 249.228 0.199998 244.728 0.0999985L238.028 0H234.628C233.528 0 232.428 0.0999969 231.328 0.199997C226.928 0.499997 222.628 0.799998 218.228 1.1L211.628 1.6L208.328 1.8L205.128 2.3C200.928 2.9 196.728 3.6 192.528 4.2L186.228 5.2C185.228 5.4 184.128 5.5 183.128 5.7L180.128 6.4C176.128 7.4 172.128 8.3 168.128 9.3L162.128 10.7C161.128 11 160.128 11.1 159.128 11.5L156.328 12.4C152.528 13.6 148.728 14.8 145.028 16L142.228 16.9C141.328 17.2 140.328 17.5 139.428 17.9L134.028 20C130.428 21.4 126.828 22.8 123.328 24.2C122.428 24.5 121.528 24.9 120.728 25.3L118.228 26.5L113.128 28.8C109.528 29.1 112.528 27.8 115.228 26.1C111.228 28.1 107.228 30 103.328 31.9C99.628 33.9 95.828 35.9 92.228 37.8C90.428 38.8 88.528 39.7 86.728 40.7C85.028 41.7 83.328 42.7 81.528 43.7C78.128 45.7 74.628 47.7 71.328 49.7C68.128 51.8 64.928 53.8 61.728 55.9C60.128 56.9 58.528 58 57.028 59C55.528 60.1 54.028 61.1 52.528 62.2C49.528 64.3 46.628 66.4 43.628 68.6C40.728 70.8 38.028 73 35.228 75.2C27.028 79.5 23.328 80.4 19.928 81.5C21.028 81.1 18.628 83.4 13.828 87.5C11.428 89.5 8.62801 92.1 5.328 95C3.62801 96.4 1.92799 98 0.0279999 99.6C-1.772 101.2 -3.772 103 -5.772 104.7C-6.772 105.7 -7.772 106.6 -8.772 107.6C-9.272 108.1 -9.77199 108.6 -10.372 109.1C-10.872 109.6 -11.472 110.1 -11.872 110.6C-13.672 112.7 -15.572 114.8 -17.472 117C-21.772 121.4 -24.272 126 -27.472 130.6L-28.672 132.3C-29.072 132.9 -29.272 133.4 -29.572 134L-31.272 137.4C-31.872 138.5 -32.372 139.7 -32.972 140.8L-33.772 142.5C-34.072 143.1 -34.372 143.6 -34.572 144.2C-35.372 146.4 -36.072 148.5 -36.872 150.6C-37.272 151.7 -37.572 152.7 -37.972 153.7C-38.172 154.2 -38.272 154.7 -38.372 155.2C-38.472 155.7 -38.572 156.2 -38.672 156.7C-39.072 158.6 -39.572 160.5 -39.972 162.3C-40.172 163.2 -40.372 164.1 -40.572 164.9C-40.672 165.7 -40.872 166.6 -40.972 167.4C-41.372 170.8 -41.672 174.1 -41.672 177.2C-41.672 180.3 -41.572 183.3 -41.372 185.4C-40.372 187.8 -40.172 189.2 -40.172 189.4Z" fill="url(#paint2_linear_61_177)"/>
</g>
<defs>
<linearGradient id="paint0_linear_61_177" x1="440.334" y1="26.1184" x2="440.334" y2="28.4001" gradientUnits="userSpaceOnUse">
<stop stop-color="white"/>
<stop offset="1" stop-color="#FDD20D"/>
</linearGradient>
<linearGradient id="paint1_linear_61_177" x1="635.778" y1="524.3" x2="635.778" y2="551.8" gradientUnits="userSpaceOnUse">
<stop stop-color="white"/>
<stop offset="1" stop-color="#FDD20D"/>
</linearGradient>
<linearGradient id="paint2_linear_61_177" x1="249.075" y1="0" x2="249.075" y2="574.1" gradientUnits="userSpaceOnUse">
<stop stop-color="white"/>
<stop offset="1" stop-color="#FDD20D"/>
</linearGradient>
</defs>
</svg>
