<svg width="34" height="30" viewBox="0 0 34 30" fill="none" xmlns="http://www.w3.org/2000/svg">
<path d="M0.100098 29.1V24C1.7001 23.7333 3.0001 23.0667 4.0001 22C5.0001 20.9333 5.76676 19.6 6.3001 18C6.76677 16.4 7.0001 14.6667 7.0001 12.8H0.800098V0H13.5001V11.7C13.5001 15.6333 12.8668 18.7667 11.6001 21.1C10.3334 23.5 8.7001 25.3333 6.7001 26.6C4.63343 27.8667 2.43343 28.7 0.100098 29.1ZM20.3001 29.1V24C21.9001 23.7333 23.2001 23.0667 24.2001 22C25.2001 20.9333 25.9668 19.6 26.5001 18C26.9668 16.4 27.2001 14.6667 27.2001 12.8H21.0001V0H33.7001V11.7C33.7001 15.6333 33.0668 18.7667 31.8001 21.1C30.5334 23.5 28.9001 25.3333 26.9001 26.6C24.8334 27.8667 22.6334 28.7 20.3001 29.1Z" fill="white"/>
</svg>
