<svg width="227" height="195" viewBox="0 0 227 195" fill="none" xmlns="http://www.w3.org/2000/svg">
<path d="M81.7817 38.1042L107.982 17.9384L96.899 49.0876L96.146 51.204L98.3915 51.1418L131.441 50.2273L104.166 68.9133L102.313 70.1829L104.166 71.4525L131.441 90.1385L98.3915 89.224L96.146 89.1618L96.899 91.2782L107.982 122.427L81.7817 102.262L80.0015 100.891L79.3667 103.046L70.0237 134.761L60.6807 103.046L60.0459 100.891L58.2658 102.262L32.0659 122.427L43.1485 91.2782L43.9015 89.1618L41.656 89.224L8.60664 90.1385L35.8817 71.4525L37.7349 70.1829L35.8817 68.9133L8.60664 50.2273L41.656 51.1418L43.9015 51.204L43.1485 49.0876L32.0659 17.9384L58.2658 38.1042L60.0459 39.4744L60.6807 37.3195L70.0237 5.60517L79.3667 37.3195L80.0015 39.4744L81.7817 38.1042Z" stroke="#FB3038" stroke-width="3.07797"/>
<circle cx="166.98" cy="34.7869" r="3.07797" stroke="#FF814C" stroke-width="3.07797"/>
<circle cx="205.839" cy="83.6492" r="1.92373" stroke="#5C72E1" stroke-width="3.07797"/>
<rect x="150.115" y="120.838" width="4.61695" height="49.2475" rx="2.30847" transform="rotate(45 150.115 120.838)" stroke="#F37DC0" stroke-width="3.07797"/>
<circle cx="218.151" cy="143.669" r="7.31017" stroke="#FDD20D" stroke-width="3.07797"/>
<circle cx="70.0238" cy="189.454" r="3.84746" stroke="white" stroke-width="3.07797"/>
</svg>
