<svg width="80" height="14" viewBox="0 0 80 14" fill="none" xmlns="http://www.w3.org/2000/svg">
<g clip-path="url(#clip0_0_893)">
<path fill-rule="evenodd" clip-rule="evenodd" d="M8.08664 0.324707C6.8106 0.324707 5.77617 1.35915 5.77617 2.63517C5.77617 3.91122 6.8106 4.94564 8.08664 4.94564C9.36274 4.94564 10.3971 3.91122 10.3971 2.63517C10.3971 1.35915 9.36274 0.324707 8.08664 0.324707ZM3.56915 4.81958C5.97422 4.81958 7.9239 6.76927 7.9239 9.1743V12.7435H5.75785V9.1743C5.75785 8.91813 5.71386 8.67236 5.63301 8.44391L2.45136 11.6256L0.919725 10.0939L3.98798 7.02567C3.85242 6.9994 3.71239 6.98564 3.56915 6.98564H0V4.81958H3.56915ZM12.658 4.81958C10.253 4.81958 8.30325 6.76927 8.30325 9.1743V12.7435H10.4693V9.1743C10.4693 8.97373 10.4963 8.77936 10.5469 8.59481L13.8751 11.923L15.4068 10.3913L12.0786 7.06317C12.2631 7.01263 12.4575 6.98564 12.658 6.98564H16.2271V4.81958H12.658Z" fill="#FF814C"/>
<path d="M19.6931 12.8687V0.418457H23.2191L26.9996 11.0875H27.2723V0.418457H29.2897V12.8687H25.8364L21.965 2.18149H21.7105V12.8687H19.6931Z" fill="#183282"/>
<path d="M37.3721 11.2325L37.881 11.178L37.9174 12.6502C36.536 12.9289 35.3122 13.0683 34.2459 13.0683C32.9009 13.0683 31.9315 12.6986 31.3379 11.9595C30.7562 11.2203 30.4654 10.039 30.4654 8.41528C30.4654 5.19213 31.7801 3.58057 34.4095 3.58057C36.9541 3.58057 38.2264 4.96796 38.2264 7.74279L38.0992 9.1604H32.4647C32.4768 9.91174 32.6404 10.4631 32.9555 10.8144C33.2704 11.1659 33.8582 11.3415 34.7185 11.3415C35.5787 11.3415 36.4634 11.3052 37.3721 11.2325ZM36.2816 7.63376C36.2816 6.73705 36.1361 6.11303 35.8453 5.76163C35.5668 5.39812 35.0881 5.21636 34.4095 5.21636C33.731 5.21636 33.2342 5.40417 32.9191 5.7798C32.6162 6.15544 32.4586 6.7734 32.4466 7.63376H36.2816Z" fill="#183282"/>
<path d="M44.1122 5.47081H41.6039V9.46942C41.6039 10.2086 41.6585 10.6993 41.7675 10.9416C41.8765 11.1839 42.1552 11.3052 42.6036 11.3052L44.094 11.2506L44.1848 12.8319C43.373 12.9894 42.7551 13.0683 42.3309 13.0683C41.3011 13.0683 40.5922 12.8319 40.2044 12.3594C39.8287 11.8867 39.641 10.9962 39.641 9.68761V5.47081H38.4777V3.78048H39.641V1.14502H41.6039V3.78048H44.1122V5.47081Z" fill="#183282"/>
<path d="M44.1194 3.78027H46.0643L47.5001 11.1778H47.8636L49.5903 3.96203H51.626L53.3527 11.1778H53.7161L55.1339 3.78027H57.0968L55.1701 12.8681H52.0259L50.6081 6.63383L49.1905 12.8681H46.0461L44.1194 3.78027Z" fill="#183282"/>
<path d="M58.3611 4.76198C58.9911 3.97437 60.0331 3.58057 61.4873 3.58057C62.9413 3.58057 63.9772 3.97437 64.5953 4.76198C65.2253 5.54958 65.5404 6.73099 65.5404 8.30625C65.5404 9.88141 65.2375 11.0689 64.6315 11.8686C64.0258 12.6684 62.9777 13.0683 61.4873 13.0683C59.9969 13.0683 58.9487 12.6684 58.3429 11.8686C57.737 11.0689 57.4341 9.88141 57.4341 8.30625C57.4341 6.73099 57.743 5.54958 58.3611 4.76198ZM59.8515 10.669C60.1302 11.1538 60.6754 11.3961 61.4873 11.3961C62.2991 11.3961 62.8444 11.1538 63.1231 10.669C63.4018 10.1844 63.5411 9.39073 63.5411 8.28806C63.5411 7.18539 63.3897 6.40383 63.0867 5.94338C62.7959 5.48293 62.2627 5.25271 61.4873 5.25271C60.7117 5.25271 60.1725 5.48293 59.8697 5.94338C59.5788 6.40383 59.4334 7.18539 59.4334 8.28806C59.4334 9.39073 59.5728 10.1844 59.8515 10.669Z" fill="#183282"/>
<path d="M66.5993 12.8683V3.78049H68.5623V4.87104C69.5922 4.2046 70.6223 3.77443 71.6522 3.58057V5.56171C70.6101 5.76769 69.7194 6.03427 68.9804 6.36143L68.5805 6.525V12.8683H66.5993Z" fill="#183282"/>
<path d="M74.2389 12.8683H72.2578V0H74.2389V7.43379L75.3658 7.32476L77.5105 3.78052H79.728L77.1107 8.03365L79.8734 12.8683H77.6377L75.4204 9.03321L74.2389 9.16043V12.8683Z" fill="#183282"/>
</g>
<defs>
<clipPath id="clip0_0_893">
<rect width="80" height="13.1408" fill="white"/>
</clipPath>
</defs>
</svg>
